<svg class="" width="40" height="40" fill="none" aria-label="Logo Spuerkeess" role="img" version="1.1" viewBox="0 0 40 40" xmlns="http://www.w3.org/2000/svg">
 <g clip-path="url(#clip0_1029_767)">
  <path d="m40 0h-40v40h40z" fill="#de0000"/>
  <g fill="#fff">
   <path d="m27.28 15.84v-5.88l-2.96-5.88-2.96 5.88v5.88h1.52v-5.52l1.44-2.96 1.48 2.96v5.52z"/>
   <path d="m32.04 17.72h-24v1.56h24z"/>
   <path d="m31.96 22.36c-2.6 0-4.68 2.08-4.68 4.68v9.32c-0.48-0.72-1-1.48-1.56-2.16v-7.16c0-3.44 2.76-6.24 6.24-6.24z"/>
   <path d="m23.16 23.92c0-1.72-1.4-3.12-3.16-3.12s-3.12 1.4-3.12 3.12v3.28c0.52 0.2 1.04 0.44 1.56 0.72v-4c0-0.84 0.68-1.56 1.56-1.56 0.84 0 1.56 0.68 1.56 1.56v5.88l1.56 1.2z"/>
   <path d="m11.12 20.8c1.76 0 3.16 1.4 3.16 3.12h-0.04v2.68c-0.52-0.16-1.04-0.32-1.56-0.44v-2.24c0-0.88-0.72-1.56-1.56-1.56-0.88 0-1.56 0.72-1.56 1.56v1.68l-1.56-0.12v-1.56c0-1.72 1.36-3.12 3.12-3.12z"/>
  </g>
 </g>
 <defs>
  <clipPath id="clip0_1029_767">
   <rect width="214" height="40" fill="#fff"/>
  </clipPath>
 </defs>
</svg>
