<svg width="350" height="350" data-name="Calque 1" version="1.1" viewBox="148.69 180.43 350 350" xmlns="http://www.w3.org/2000/svg">
 <rect x="148.69" y="180.43" width="350" height="350" fill="#702f8a" stroke-width="2.8867"/>
 <g transform="translate(58.13 82.676)" fill="#fff">
  <polyline class="cls-1" points="152.67 322.62 149.36 324.48 149.36 322.05 153.18 320.02 155.59 320.02 155.59 336.57 152.67 336.57"/>
  <path class="cls-1" d="m202.64 323.98c0-0.72-0.54-1.9-2.05-1.9-2.36 0-2.64 2.79-2.64 6.08 0.72-0.71 1.72-1.46 3.62-1.46 3.18 0 4.61 2.08 4.61 5.11 0 3.18-2.05 5.05-5.54 5.05-5.13 0-5.9-3.82-5.9-8.44 0-5.13 1.08-8.39 6.11-8.39 3.69 0 4.9 2.21 5 3.96m-5.29 10.94c1.82 0 2.41-1.52 2.41-3.24s-0.56-3.07-2.41-3.07-2.51 1.3-2.51 3.1c0 1.67 0.79 3.21 2.51 3.21"/>
  <path class="cls-1" d="m178.91 261.77c-1.16 0-5.81 0-7.56 0.14v23.41c1.89 0.29 5.23 0.44 8.71 0.44 10.03 0 15.7-4.71 15.7-12.37s-6.25-11.62-16.86-11.62m1.89-39.15c-3.49 0-6.68 0.15-9.44 0.3v21.78c1.89 0.15 4.06 0.15 6.68 0.15 11.04 0 16.42-4.57 16.42-12.07 0-6.33-4.21-10.16-13.66-10.16m-1.16 81.83c-5.81 0-16.7-0.29-30.94-0.29v-99.2c9.01-0.44 23.68-0.74 35.74-0.74 21.36 0 34 8.39 34 25.03 0 9.26-5.81 17.65-14.24 21.48v0.44c10.03 2.65 15.83 12.07 15.83 21.93 0 15.9-11.48 31.35-40.39 31.35"/>
  <path class="cls-1" d="m254.39 237.61v-33.39h-22.66v84.43 15.66 0.13h22.66"/>
  <path class="cls-1" d="m259.88 320.37s3.65 4.81 12.15 10.9c2.44 1.76 6.37 4.17 8.57 5.47 1.76 1.04 3.58 2.07 6.21 3.36 0.81 0.4 2.54 0.8 4.8-0.47 3.31-1.85 18.65-10.1 34.65-26.57 15.99-16.46 27.95-34.19 35.74-52.65 6.36-15.05 10.53-31.22 12.46-47.72 0.44-3.74 0.94-10.21 0.97-11.27s0.32-2.92-2.58-3.92c-2.57-0.88-21.65-7.23-48.49-11.18-26.83-3.96-42.81-3.53-60.31-2.63-15.3 0.79-34.15 3.62-42.17 4.97v-1.73s16.75-3.54 37.39-5.34 49.01-1.63 71.37 1.46c22.35 3.1 36.02 6.19 40.76 7.48 2.84 0.77 4.64 1.26 7.58 2.08 1.37 0.38 2.05 0.77 2.75 1.72 0.4 0.56 0.7 1.47 0.7 2.16 0 1.68-0.05 4.63-0.07 5.36-0.05 1.63-0.21 10.18-1.07 17.32s-3.18 28.46-12.72 51.68c-2.55 6.19-5.36 12.66-8.75 19.1-9.35 17.73-22.21 35.79-39.06 51.24-19.78 18.14-28.03 22.1-29.5 22.88-1.94 1.03-3.07 1.35-4.7 0.57-1.63-0.77-7.74-3.9-17.69-10.46s-17.45-13.21-23.27-19.35c-5.81-6.13-8.83-11.17-10.68-14.46"/>
  <path class="cls-1" d="m162.58 332.28c0-3.16 1.67-3.77 2.82-4.21-1.18-0.52-2.58-1.26-2.58-3.88 0-3.08 2.54-4.18 5.44-4.18 3.08 0 5.44 1.1 5.44 4.28 0 2.57-1.49 3.28-2.57 3.77 1.26 0.49 2.8 1.05 2.8 4.21 0 3.49-2.46 4.56-5.67 4.56-3.47 0-5.67-1.23-5.67-4.56m5.67 2.66c1.72 0 2.54-1.18 2.54-3.11 0-1.54-0.75-2.85-2.54-2.85s-2.54 1.31-2.54 2.85c0 1.93 0.98 3.11 2.54 3.11m0-7.88c1.46 0 2.3-0.94 2.3-2.59s-0.77-2.52-2.3-2.52c-1.23 0-2.31 0.93-2.31 2.49 0 1.67 0.95 2.61 2.31 2.61"/>
  <path class="cls-1" d="m182.31 327.3c0.59-0.41 1.51-0.77 2.82-0.77 3.24 0 5.16 1.82 5.16 5.26 0 3.67-2.69 5.05-5.84 5.05-4.62 0-5.62-2.25-5.8-3.97h3.39c0.1 0.79 0.54 1.93 2.38 1.93s2.67-1.13 2.67-3.16c0-1.74-0.64-3.18-2.64-3.18-1.18 0-1.93 0.71-2.13 1.18h-2.98l0.46-9.33h9.18v2.2h-6.44"/>
  <path class="cls-1" d="m271.31 204.22v100.23h40.55s11.1-9.68 17.69-20.31h-35.56v-79.92"/>
 </g>
</svg>
