<svg width="64" height="64" version="1.1" viewBox="0 0 64 64" xmlns="http://www.w3.org/2000/svg">
 <rect width="64" height="64" fill="#fff" stroke-width="1.9994"/>
 <path transform="translate(16.655 11)" d="m30.09 41.551c0.1219 0 0.2392-0.0658 0.3001-0.1835 0.061-0.1176 0.0469-0.254-0.0281-0.3528l-9.4078-13.089s-0.469-0.7387-1.0224-1.1386c-0.5627-0.4093-1.2099-0.4846-1.4257-0.5269-9.6985-2.042-13.277-5.5236-15.476-9.2735-1.3272-2.2583-2.0917-5.1142-2.5278-7.8525-0.051588-0.32464-0.50181-0.39992-0.50181 0.16467v20.189c0 3.2746 0.75506 6.474 3.25 8.9723 2.1995 2.2866 5.7638 3.0911 9.028 3.0911z" fill="#b5c72e"/>
 <path transform="translate(16.655 11)" d="m16.499 0.44885c-0.0235 0-12.208 0.004704-12.831 0.004704-0.62375 0-0.45492 0.38581-0.11256 0.4799 3.3063 0.87983 10.055 3.2511 12.981 7.2409 5.3792 7.3303 3.6956 16.039 3.5455 16.961 0.0375-0.0094 0.0797-0.0188 0.1172-0.0283 0.9286-0.2258 1.8244-0.5316 2.6685-0.908 4.6383-2.0655 7.8227-6.2999 7.8227-11.202 0-6.9304-6.3548-12.548-14.191-12.548z" fill="#003"/>
</svg>
