<svg width="45.4" height="45.4" version="1.1" viewBox="0 0 45.4 45.4" xml:space="preserve" xmlns="http://www.w3.org/2000/svg">
<style type="text/css">
	.st0{fill:url(#SVGID_1_);}
	.st1{fill:url(#SVGID_2_);}
	.st2{fill:url(#SVGID_3_);}
	.st3{fill:url(#SVGID_4_);}
	.st4{fill:url(#SVGID_5_);}
	.st5{fill:url(#SVGID_6_);}
	.st6{fill:#FFFFFF;}
</style>
<g id="Embleme_x5F_Q">
	
		
			
				<linearGradient id="SVGID_1_" x1="22.7" x2="22.7" y1="48.478" y2=".6016" gradientTransform="matrix(1,0,0,-1,0,47.4)" gradientUnits="userSpaceOnUse">
				<stop stop-color="#008053" offset="0"/>
				<stop stop-color="#7FCBAE" offset=".6"/>
				<stop stop-color="#00A76D" offset="1"/>
			</linearGradient>
			<rect class="st0" width="45.4" height="45.4" fill="url(#SVGID_1_)"/>
			
				<linearGradient id="SVGID_2_" x1="22.7" x2="22.7" y1="58.628" y2="4.8287" gradientTransform="matrix(1,0,0,-1,0,47.4)" gradientUnits="userSpaceOnUse">
				<stop stop-color="#00A76D" offset="0"/>
				<stop stop-color="#7FCBAE" offset=".3"/>
				<stop stop-color="#00A76D" offset=".55"/>
				<stop stop-color="#008053" offset=".8352"/>
				<stop stop-color="#008558" offset=".8691"/>
				<stop stop-color="#009264" offset=".9244"/>
				<stop stop-color="#00A97A" offset=".9938"/>
				<stop stop-color="#00AD7D" offset="1"/>
			</linearGradient>
			<path class="st1" d="m44 23c0 9.5 0.4 19.2 0.4 19.2 0 1.1-0.7 1.8-1.6 1.8h-39.2c-0.9 0-1.5-0.8-1.6-1.8 0 0-1.1-8.3-1.1-20.9s1.1-18.6 1.1-18.6c0.1-1 0.7-1.8 1.6-1.8h39.3c0.9 0 1.6 0.8 1.6 1.8-0.1-0.1-0.5 10.8-0.5 20.3z" fill="url(#SVGID_2_)"/>
			
				
					
						<linearGradient id="SVGID_3_" x1="31.25" x2="31.25" y1="7.799" y2="42.614" gradientTransform="matrix(1,0,0,-1,0,47.4)" gradientUnits="userSpaceOnUse">
						<stop stop-color="#00B387" offset="0"/>
						<stop stop-color="#00A76D" offset="1"/>
					</linearGradient>
					<path class="st2" d="m35.3 12.3c-2.8 1.6-3.7 1.8-6.7 3.6l0.1-0.3c1.6-1.7 2.3-2.5 3.3-4-2.8 0.2-6.9 0.5-9.8 1.1l0.2-0.3c2.6-1.3 7.6-2.6 10.1-2.9-0.6-0.9-5.6-3.6-6.8-4.1l0.1-0.3c3.8 0.4 8.8 2.2 10.9 3.5 0.9-0.3 1.9-0.3 3.6-0.5 0 0-0.3 1-2.1 2.3 0.5 1.2-0.6 8.1-1.6 9.9 0-2.8-0.3-6.4-1.3-8z" fill="url(#SVGID_3_)"/>
					
						<linearGradient id="SVGID_4_" x1="9.65" x2="9.65" y1="7.7975" y2="42.624" gradientTransform="matrix(1,0,0,-1,0,47.4)" gradientUnits="userSpaceOnUse">
						<stop stop-color="#00B387" offset="0"/>
						<stop stop-color="#00A76D" offset="1"/>
					</linearGradient>
					<path class="st3" d="m14.8 36.8 0.1-0.3c-1.5-0.6-3-1-4.2-2.2 0.4-1.1 0.8-1.9 1.5-2.9l0.1-0.3c-1.3 0.2-2.4 0.7-3.5 0.9-0.9-1.5-1.2-3.6-1.7-5.6l-0.1 0.3c-0.2 2.3-0.3 3.9 0 5.7-0.9 0.3-1.7 0.3-2.5 0.6l-0.1 0.3c1.2 0.7 2.1 1.3 3.5 1.9 0.7 1.5 1.5 2.6 2.7 3.8l0.1-0.3c-0.2-0.9-0.5-1.6-0.4-2.6 1.5 0.4 2.8 0.7 4.5 0.7z" fill="url(#SVGID_4_)"/>
					
						<linearGradient id="SVGID_5_" x1="16.45" x2="16.45" y1="7.8057" y2="42.609" gradientTransform="matrix(1,0,0,-1,0,47.4)" gradientUnits="userSpaceOnUse">
						<stop stop-color="#00B387" offset="0"/>
						<stop stop-color="#00A76D" offset="1"/>
					</linearGradient>
					<path class="st4" d="m18.9 14s-0.6 1.1-1.1 2.5h-0.1c3.5 0.5 6.8 1.9 7.6 2.4l-0.1 0.3c-3.6-0.6-5.5-0.6-6.9-0.4-1.3 0.1-1.6 0.3-1.6 0.3-0.8 1.7-1.2 4.5-1.4 5.5l-0.1 0.3c-0.7-1.6-1.6-4.8-1.6-4.8-1.8 1-6 4.9-6 4.9 2.3-4.6 4.7-6.7 4.7-6.7-0.8-0.8-2.9-1.2-4.5-1.3l0.1-0.3c1-0.3 3-0.4 4.3-0.5h2.5c1.4-1.1 3.5-2.1 4.2-2.2z" fill="url(#SVGID_5_)"/>
					
						<linearGradient id="SVGID_6_" x1="22.2" x2="22.2" y1="7.8001" y2="42.615" gradientTransform="matrix(1,0,0,-1,0,47.4)" gradientUnits="userSpaceOnUse">
						<stop stop-color="#00B387" offset="0"/>
						<stop stop-color="#00A76D" offset="1"/>
					</linearGradient>
					<path class="st5" d="m23.3 33.9c-0.7 1-1.4 1.8-2.2 2.7-1.2 0.3-2.6 0.2-3.7 0.2l-0.1 0.3c0.8 0.4 1.6 0.7 2.5 0.9-0.7 0.6-1.6 1.1-2.3 1.6l-0.1 0.3c1.4-0.3 3.3-0.9 4.7-1.8 0.7 0 1.4 0 1.9-0.1l0.1-0.3c-0.1-0.3-0.4-0.5-0.5-1 1.3-1 2.2-1.9 3.3-3l0.2-0.3c-1.1 0.7-2.4 1.8-3.6 2.4-0.1-0.7-0.1-1.2-0.2-1.9z" fill="url(#SVGID_6_)"/>
				
				
					<path class="st6" d="m35.4 12c-2.8 1.6-3.7 1.8-6.7 3.6 1.8-1.9 2.4-2.7 3.5-4.4-2.8 0.1-6.9 0.5-9.8 1.1 2.5-1.4 7.6-2.9 10.2-3.2-0.6-0.8-5.6-3.5-6.8-4.1 3.9 0.3 8.8 1.8 11.1 3.2 0.9-0.3 1.9-0.3 3.6-0.5-0.4 0.7-0.5 1.2-2.1 2.3 0.5 1.2-0.6 8.1-1.6 9.9-0.1-2.8-0.3-6.4-1.4-7.9z"/>
					<path class="st6" d="m14.9 36.5c-1.6-0.6-2.8-1.3-4-2.5 0.4-1.1 0.8-1.9 1.5-2.9-1.3 0.2-2.3 0.3-3.4 0.6-0.9-1.6-1.3-3.2-1.8-5.3-0.3 2.3-0.3 3.9 0 5.7-1 0.3-1.8 0.5-2.6 0.9 1.2 0.7 2.2 1.3 3.5 1.9 0.7 1.5 1.5 2.6 2.7 3.8-0.3-1-0.4-1.8-0.2-2.9 1.3 0.4 2.6 0.6 4.3 0.7z"/>
					<path class="st6" d="m19.1 13.8c-0.5 0.7-1.1 1.9-1.2 2.4 4.1 0.6 7.5 2.7 7.5 2.7-3.6-0.6-5.5-0.6-6.9-0.4-1.3 0.1-1.6 0.3-1.6 0.3-1 2.1-1.6 5.8-1.6 5.8-0.7-1.6-1.6-4.8-1.6-4.8-1.8 1-6 4.9-6 4.9 2.3-4.6 4.7-6.7 4.7-6.7-0.8-0.8-2.9-1.2-4.5-1.3 0.8-0.3 2.9-0.7 4.5-0.8h2.5c1.3-1.1 3.5-2 4.2-2.1z"/>
					<path class="st6" d="m23.5 33.6c-0.7 1-1.4 1.8-2.2 2.7-1.4 0.4-2.5 0.5-3.9 0.5 0.8 0.4 1.6 0.7 2.5 0.9-0.9 0.8-1.6 1.3-2.5 1.9 1.4-0.3 3.3-0.9 4.7-1.8 0.7 0 1.4 0 1.9-0.1-0.1-0.4-0.2-0.7-0.3-1.3 1.3-1 2.3-1.9 3.3-3-1.2 0.8-2.2 1.4-3.5 2 0.1-0.6 0-1.1 0-1.8z"/>
				
			
		
	
</g>

</svg>
